PathFileType	4	(X/Y/Z)	/Users/itak/Documents/Research/Walk-IL/dataset/trc/00425_00167.trc
DataRate	CameraRate	NumFrames	NumMarkers	Units	OrigDataRate	OrigDataStartFrame	OrigNumFrames
100.000000	100.000000	4	53	mm	100.000000	0	754
Frame#	Time	RPSI			LPSI			L3			STRN			T10			C7			CLAV			RBAK			LBAK			LSHO			LUPA			LAEL			LAOL			LWTS			LWPS			LFRA			LIFD			LHPS			LHTS			RSHO			RUPA			RAEL			RAOL			RWTS			RWPS			RFRA			RIFD			RHTS			RHPS			RBHD			LFHD			RFHD			LBHD			LHIP			RHIP			RASI			LASI			LKNE			LTHI			LANK			LTIP			LTOE			LMT1			LMT5			LHEE			RKNE			RTHI			RANK			RTIP			RTOE			RMT1			RMT5			RHEE			
		X1	Y1	Z1	X2	Y2	Z2	X3	Y3	Z3	X4	Y4	Z4	X5	Y5	Z5	X6	Y6	Z6	X7	Y7	Z7	X8	Y8	Z8	X9	Y9	Z9	X10	Y10	Z10	X11	Y11	Z11	X12	Y12	Z12	X13	Y13	Z13	X14	Y14	Z14	X15	Y15	Z15	X16	Y16	Z16	X17	Y17	Z17	X18	Y18	Z18	X19	Y19	Z19	X20	Y20	Z20	X21	Y21	Z21	X22	Y22	Z22	X23	Y23	Z23	X24	Y24	Z24	X25	Y25	Z25	X26	Y26	Z26	X27	Y27	Z27	X28	Y28	Z28	X29	Y29	Z29	X30	Y30	Z30	X31	Y31	Z31	X32	Y32	Z32	X33	Y33	Z33	X34	Y34	Z34	X35	Y35	Z35	X36	Y36	Z36	X37	Y37	Z37	X38	Y38	Z38	X39	Y39	Z39	X40	Y40	Z40	X41	Y41	Z41	X42	Y42	Z42	X43	Y43	Z43	X44	Y44	Z44	X45	Y45	Z45	X46	Y46	Z46	X47	Y47	Z47	X48	Y48	Z48	X49	Y49	Z49	X50	Y50	Z50	X51	Y51	Z51	X52	Y52	Z52	X53	Y53	Z53	

1	0	-1154.772705078125	970.8936157226562	-440.4866027832031	-1076.2626953125	968.0740356445312	-557.339111328125	-1115.921997070312	1063.412475585938	-487.0032653808594	-887.9828491210938	1258.45703125	-354.512939453125	-1134.005615234375	1186.802856445312	-505.0174865722656	-1089.042236328125	1452.3564453125	-457.520263671875	-919.7067260742188	1371.970458984375	-375.1263122558594	-1189.712890625	1333.134521484375	-407.3028259277344	-1064.401489257812	1410.8759765625	-562.119140625	-932.350830078125	1434.543212890625	-571.4608154296875	-878.9932861328125	1318.914428710938	-659.4911499023438	-827.94970703125	1101.476196289062	-662.1130981445312	-930.6874389648438	1083.655517578125	-671.6793212890625	-798.0582275390625	902.2351684570312	-565.7274780273438	-788.2571411132812	885.3851928710938	-637.2101440429688	-803.0086669921875	1014.475463867188	-650.4561767578125	-788.6804809570312	733.7296142578125	-562.2120361328125	-781.0652465820312	805.505126953125	-628.546875	-779.6026611328125	813.5115966796875	-557.9742431640625	-1108.451293945312	1421.251708984375	-283.9399719238281	-1158.43798828125	1358.153564453125	-225.4938354492188	-1155.447509765625	1071.069091796875	-164.7302398681641	-1194.575439453125	1053.140258789062	-217.2015686035156	-1035.6767578125	876.1539916992188	-179.8368377685547	-1114.5810546875	855.65185546875	-145.2108154296875	-1151.257080078125	1012.727722167969	-154.4612731933594	-1030.010498046875	717.6644897460938	-178.1694641113281	-1019.458129882812	776.5418701171875	-163.5696716308594	-1092.037109375	770.1699829101562	-141.7348327636719	-1088.7060546875	1639.073486328125	-353.3590393066406	-889.55322265625	1678.612426757812	-398.5045166015625	-968.3877563476562	1673.435913085938	-293.5600891113281	-995.7152709960938	1648.383666992188	-504.574951171875	-903.497802734375	859.4462280273438	-576.5577392578125	-1137.151977539062	861.9923706054688	-262.177001953125	-1014.505737304688	904.5817260742188	-251.9408264160156	-860.8005981445312	898.3352661132812	-458.290771484375	-944.7639770507812	434.3876953125	-537.6015014648438	-901.86181640625	586.87646484375	-545.3785400390625	-1022.944702148438	34.06406784057617	-556.0869750976562	-954.6486206054688	281.25732421875	-542.8187866210938	-871.6821899414062	44.78344345092773	-375.9219970703125	-950.2429809570312	49.73919677734375	-392.4399108886719	-889.7337646484375	47.73177719116211	-486.2185974121094	-1096.677856445312	32.58711624145508	-543.6968383789062	-1098.5888671875	461.6665954589844	-288.5000915527344	-1101.014038085938	724.8763427734375	-233.4869537353516	-1120.906005859375	43.88223648071289	-331.0820922851562	-1105.485473632812	315.812255859375	-285.5597229003906	-908.640380859375	47.71286392211914	-267.7430419921875	-946.4306640625	52.70166778564453	-330.8997192382812	-1014.818603515625	49.3305549621582	-246.2483825683594	-1155.273681640625	31.96639060974121	-404.9898986816406	
2	0.01	-1154.72900390625	970.9131469726562	-440.50537109375	-1076.24951171875	968.1034545898438	-557.3994140625	-1115.896362304688	1063.425903320312	-487.0020141601562	-887.9326171875	1258.475341796875	-354.5444946289062	-1133.983276367188	1186.812377929688	-505.0093078613281	-1089.033081054688	1452.371459960938	-457.5017700195312	-919.683349609375	1371.982299804688	-375.1427307128906	-1189.695190429688	1333.140502929688	-407.2747192382812	-1064.39453125	1410.9052734375	-562.1107177734375	-932.3602905273438	1434.560546875	-571.4695434570312	-879.0250244140625	1318.92041015625	-659.509521484375	-827.96875	1101.488647460938	-662.129150390625	-930.7282104492188	1083.676025390625	-671.6902465820312	-798.0841674804688	902.244140625	-565.759521484375	-788.2842407226562	885.3964233398438	-637.2463989257812	-803.0457763671875	1014.528076171875	-650.4473266601562	-788.6688232421875	733.7535400390625	-562.2385864257812	-781.06201171875	805.552734375	-628.5789794921875	-779.6435546875	813.5181884765625	-558.0009765625	-1108.431640625	1421.254760742188	-283.9266662597656	-1158.401977539062	1358.154663085938	-225.4669189453125	-1155.4345703125	1071.076904296875	-164.7042541503906	-1194.547485351562	1053.143676757812	-217.1699523925781	-1035.6630859375	876.154296875	-179.807861328125	-1114.5439453125	855.697509765625	-145.1722259521484	-1151.2392578125	1012.735717773438	-154.4321441650391	-1030.014526367188	717.6526489257812	-178.136962890625	-1019.468383789062	776.5398559570312	-163.5103454589844	-1091.991455078125	770.183349609375	-141.7579803466797	-1088.678466796875	1639.101684570312	-353.3748168945312	-889.5084838867188	1678.617309570312	-398.5356140136719	-968.2977294921875	1673.446899414062	-293.5428466796875	-995.7041015625	1648.389526367188	-504.5796203613281	-903.3844604492188	859.4752197265625	-576.5852661132812	-1137.106567382812	862.0231323242188	-262.1653442382812	-1014.460632324219	904.587646484375	-252.044189453125	-860.72509765625	898.3510131835938	-458.3678283691406	-944.5390625	434.4502258300781	-537.5272827148438	-901.772705078125	586.8779296875	-545.3605346679688	-1022.937622070312	34.07424163818359	-556.0783081054688	-954.5133056640625	281.2540893554688	-542.7516479492188	-871.6908569335938	44.78473281860352	-375.9093627929688	-950.2547607421875	49.73336410522461	-392.43603515625	-889.7426147460938	47.75055694580078	-486.2169494628906	-1096.672973632812	32.58568954467773	-543.7080078125	-1098.724487304688	461.6987609863281	-288.4623718261719	-1100.978637695312	724.9156494140625	-233.4727325439453	-1120.966430664062	43.86510848999023	-330.9954223632812	-1105.639892578125	315.8367919921875	-285.5044555664062	-908.667236328125	47.72956848144531	-267.7257995605469	-946.453857421875	52.73191070556641	-330.9225769042969	-1014.848449707031	49.33084869384766	-246.2305755615234	-1155.31005859375	31.93021392822266	-404.9494323730469	
3	0.02	-1154.664794921875	970.9414672851562	-440.5396118164062	-1076.223388671875	968.1485595703125	-557.4853515625	-1115.861206054688	1063.442016601562	-486.9998779296875	-887.8656616210938	1258.497436523438	-354.588134765625	-1133.947265625	1186.828735351562	-505.0077209472656	-1089.015991210938	1452.3916015625	-457.4793701171875	-919.6507568359375	1371.997314453125	-375.1672973632812	-1189.670532226562	1333.14794921875	-407.241943359375	-1064.382690429688	1410.9443359375	-562.0960693359375	-932.373046875	1434.58447265625	-571.4805908203125	-879.0645751953125	1318.930053710938	-659.5344848632812	-827.9961547851562	1101.506713867188	-662.1527099609375	-930.78076171875	1083.7041015625	-671.7073974609375	-798.1226196289062	902.2578125	-565.798583984375	-788.32373046875	885.4130859375	-637.2908325195312	-803.0936889648438	1014.585876464844	-650.4476318359375	-788.6634521484375	733.7862548828125	-562.2655029296875	-781.0756225585938	805.6022338867188	-628.609130859375	-779.6893920898438	813.5297241210938	-558.0337524414062	-1108.4033203125	1421.256225585938	-283.91064453125	-1158.353637695312	1358.154174804688	-225.4329376220703	-1155.413696289062	1071.084838867188	-164.6725769042969	-1194.5087890625	1053.1484375	-217.1342620849609	-1035.645141601562	876.1541137695312	-179.7716979980469	-1114.499755859375	855.74560546875	-145.1272125244141	-1151.213134765625	1012.743591308594	-154.3958282470703	-1030.017944335938	717.6376342773438	-178.0940704345703	-1019.469665527344	776.5323486328125	-163.4503936767578	-1091.943603515625	770.1943359375	-141.7682189941406	-1088.637573242188	1639.1376953125	-353.383056640625	-889.4481811523438	1678.620849609375	-398.5813903808594	-968.1531372070312	1673.465698242188	-293.526611328125	-995.690185546875	1648.399780273438	-504.584716796875	-903.2772216796875	859.5093994140625	-576.6467895507812	-1137.042602539062	862.0596923828125	-262.1722412109375	-1014.399108886719	904.5958251953125	-252.1805419921875	-860.6334228515625	898.3723754882812	-458.4601135253906	-944.2749633789062	434.5164794921875	-537.4383544921875	-901.6353759765625	586.8820190429688	-545.3352661132812	-1022.929626464844	34.08499908447266	-556.06884765625	-954.3455810546875	281.2463073730469	-542.67041015625	-871.7046508789062	44.78564834594727	-375.8935546875	-950.2713623046875	49.72583389282227	-392.4294738769531	-889.7553100585938	47.77363967895508	-486.2144775390625	-1096.664184570312	32.58525848388672	-543.7236328125	-1098.898681640625	461.7396240234375	-288.4302368164062	-1100.936889648438	724.9641723632812	-233.4662628173828	-1121.036499023438	43.83894348144531	-330.8991394042969	-1105.834838867188	315.8675842285156	-285.4418334960938	-908.7007446289062	47.74742126464844	-267.71240234375	-946.48193359375	52.76641845703125	-330.9504699707031	-1014.880493164062	49.32962799072266	-246.2076110839844	-1155.361450195312	31.88693428039551	-404.8924560546875	
4	0.03	-1154.57861328125	970.979248046875	-440.59423828125	-1076.179565429688	968.21044921875	-557.5977172851562	-1115.816284179688	1063.460205078125	-486.9972839355469	-887.7836303710938	1258.521850585938	-354.6434326171875	-1133.895263671875	1186.853271484375	-505.0180969238281	-1088.98876953125	1452.41650390625	-457.4542846679688	-919.6083984375	1372.014526367188	-375.20068359375	-1189.638427734375	1333.156372070312	-407.20703125	-1064.365234375	1410.99267578125	-562.0748901367188	-932.3887939453125	1434.615356445312	-571.4937133789062	-879.10888671875	1318.944091796875	-659.566162109375	-828.0324096679688	1101.53076171875	-662.1846313476562	-930.8436279296875	1083.739379882812	-671.7310180664062	-798.1746826171875	902.2761840820312	-565.8424682617188	-788.3768310546875	885.4357299804688	-637.3406982421875	-803.1510620117188	1014.643493652344	-650.4614868164062	-788.6688232421875	733.8282470703125	-562.2882690429688	-781.1102905273438	805.649658203125	-628.6325073242188	-779.7382202148438	813.546875	-558.0701293945312	-1108.365234375	1421.255126953125	-283.8933715820312	-1158.293334960938	1358.151123046875	-225.3936920166016	-1155.3828125	1071.09130859375	-164.6375274658203	-1194.458984375	1053.154418945312	-217.0975494384766	-1035.623291015625	876.1531982421875	-179.7300872802734	-1114.451416015625	855.7899780273438	-145.0788879394531	-1151.177856445312	1012.750305175781	-154.3546447753906	-1030.019287109375	717.6196899414062	-178.0419464111328	-1019.45654296875	776.5173950195312	-163.3984680175781	-1091.896484375	770.2008056640625	-141.7610778808594	-1088.58056640625	1639.180053710938	-353.3769836425781	-889.3732299804688	1678.621459960938	-398.6429443359375	-967.9483032226562	1673.49365234375	-293.5148010253906	-995.674072265625	1648.415405273438	-504.589599609375	-903.1865844726562	859.5438842773438	-576.7471923828125	-1136.9619140625	862.1007080078125	-262.2054138183594	-1014.322570800781	904.60546875	-252.3450164794922	-860.5327758789062	898.398193359375	-458.5613098144531	-943.9912719726562	434.5767211914062	-537.34130859375	-901.4434814453125	586.890380859375	-545.3031005859375	-1022.92138671875	34.09487152099609	-556.06005859375	-954.1530151367188	281.2338562011719	-542.5801391601562	-871.7234497070312	44.78564834594727	-375.8751220703125	-950.29248046875	49.71708679199219	-392.4198608398438	-889.7717895507812	47.79925918579102	-486.2115173339844	-1096.650756835938	32.58602142333984	-543.7439575195312	-1099.105102539062	461.7872314453125	-288.4119567871094	-1100.891723632812	725.0188598632812	-233.4745635986328	-1121.111206054688	43.80441665649414	-330.8008422851562	-1106.061279296875	315.9033508300781	-285.3785095214844	-908.7400512695312	47.76577377319336	-267.7047119140625	-946.5142822265625	52.80280685424805	-330.9797973632812	-1014.911499023438	49.32646179199219	-246.1801605224609	-1155.429809570312	31.84067916870117	-404.8171997070312	
